<svg xmlns="http://www.w3.org/2000/svg" viewBox="0 0 1024 1024">
  <rect width="1024" height="1024" rx="224" fill="#F7F7F7"/>
  <path fill="#333333" fill-rule="evenodd" d="M258 243c155-96 353-118 522-52 26 10 43 35 43 63v131c0 35-35 59-67 45-78-35-169-46-255-31 74 28 126 100 126 184v110c72 10 140 33 200 67 19 11 31 31 31 53v58c0 34-34 58-66 46-176-68-374-57-542 31-33 18-74-6-74-44V770c0-30 17-58 45-72 62-31 130-50 199-57V583c0-84 52-156 126-184-86-15-177-4-255 31-32 14-67-10-67-45V305c0-26 13-49 34-62Zm254 143c-49 0-89 40-89 89 0 30 15 57 39 73-54 22-92 74-92 136v17c93-20 190-20 284 0v-17c0-62-38-114-92-136 24-16 39-43 39-73 0-49-40-89-89-89Z"/>
  <circle cx="604" cy="532" r="38" fill="#C44755"/>
</svg>
